<?xml version="1.0" encoding="utf-8"?>
<!-- Generator: Adobe Illustrator 24.1.2, SVG Export Plug-In . SVG Version: 6.00 Build 0)  -->
<svg version="1.1" id="Camada_1" xmlns="http://www.w3.org/2000/svg" xmlns:xlink="http://www.w3.org/1999/xlink" x="0px" y="0px"
	 viewBox="0 0 134.1 22" style="enable-background:new 0 0 134.1 22;" xml:space="preserve">
<g>
	<g>
		<path d="M43.9,0.5c4,0,7.3,1.8,7.3,5.7c0,1.7-0.8,3.4-2.8,4.3c2.7,1,3.8,3.7,3.3,6.1c-0.6,3.4-3.5,4.9-7.7,4.9
			c-3.4,0-7.1,0-10.5,0v-21H43.9z M38.1,8.7h5.7c1.8,0,2.7-0.8,2.7-2s-0.9-2.1-2.7-2.1h-5.8V8.7z M38.1,17.4h5.8
			c2.1,0,3.1-0.9,3.1-2.4s-1.1-2.5-3.2-2.5c-1.9,0-3.8,0-5.7,0V17.4z"/>
		<path d="M68.2,22c-6.7,0-11.4-4.2-11.4-11S61.5,0,68.2,0s11.4,4.2,11.4,11S75,22,68.2,22z M68.2,4.2c-4,0-6.8,3-6.8,6.8
			c0,3.9,2.8,6.8,6.8,6.8c4.1,0,6.8-2.9,6.8-6.8C75,7.2,72.3,4.2,68.2,4.2z"/>
		<path d="M104.1,6.9l-6.5,8.2h-0.8l-6.3-8.2v14.7h-4.7v-21c1.8,0,3.6,0,5.4,0l6.1,8.1l6.2-8.1h5.3v21h-4.7V6.9z"/>
		<path d="M120.8,15.6v5.9h-4.7v-21c3.4,0,6.6,0,9.9,0c5.4,0,8,3.5,8,7.5c0,4.2-2.7,7.5-8,7.5H120.8z M120.8,11.3h5.2
			c2.3,0,3.4-1.5,3.4-3.2S128.3,5,126,5h-5.2V11.3z"/>
	</g>
	<g>
		<path d="M15,14.8c0,0.4-0.3,0.7-0.7,0.7H9.7c-0.4,0-0.7-0.3-0.7-0.7v-2.2H0v6.7c0,1.2,1,2.2,2.2,2.2h19.5c1.2,0,2.2-1,2.2-2.2
			v-6.7h-9V14.8z M21.7,5H18V2.8c0-1.2-1-2.2-2.2-2.2H8.2C7,0.5,6,1.6,6,2.8V5H2.2C1,5,0,6.1,0,7.3V11h24V7.3C24,6.1,22.9,5,21.7,5z
			"/>
	</g>
</g>
</svg>
